ply			
format ascii 1.0			
element vertex 27			
property float x			
property float y			
property float z			
element face 48			
property list uchar int vertex_indices			
end_header			
0	0	0	
0	0	0.4836868174	
0	0	1	
0	0.4760228222	0	
0	0.5395449352	0.4635260247	
0	0.4666693072	1	
0	1	0	
0	1	0.4763403145	
0	1	1	
0.5342347269	0	0	
0.4678964232	0	0.4845675846	
0.5340441803	0	1	
0.5273266334	0.4901973063	0	
0.470240593	0.5174679769	0.5021393278	
0.5339587321	0.4668972762	1	
0.4960594651	1	0	
0.4993143129	1	0.4980793624	
0.4663603688	1	1	
1	0	0	
1	0	0.4826798181	
1	0	1	
1	0.4564736261	0	
1	0.4778255905	0.5086702654	
1	0.5072988671	1	
1	1	0	
1	1	0.5003643618	
1	1	1	
3	0	1	3
3	3	6	7
3	5	7	8
3	1	2	5
3	1	3	4
3	3	4	7
3	4	5	7
3	1	4	5
3	18	19	21
3	21	24	25
3	23	25	26
3	19	20	23
3	19	21	22
3	21	22	25
3	22	23	25
3	19	22	23
3	3	6	15
3	3	12	15
3	15	21	24
3	12	15	21
3	9	12	21
3	9	18	21
3	0	3	9
3	3	9	12
3	0	1	9
3	1	9	10
3	9	18	19
3	9	10	19
3	10	11	19
3	11	19	20
3	1	2	11
3	1	10	11
3	2	5	11
3	5	11	14
3	11	20	23
3	11	14	23
3	14	17	23
3	17	23	26
3	5	8	17
3	5	14	17
3	6	7	15
3	7	15	16
3	15	24	25
3	15	16	25
3	16	17	25
3	17	25	26
3	7	8	17
3	7	16	17
